<?xml version="1.0" encoding="utf-8"?>
<!-- Generator: Adobe Illustrator 19.1.0, SVG Export Plug-In . SVG Version: 6.00 Build 0)  -->
<svg version="1.1" id="Layer_1" xmlns="http://www.w3.org/2000/svg" xmlns:xlink="http://www.w3.org/1999/xlink" x="0px" y="0px"
	 viewBox="0 0 538.5 402.5" style="enable-background:new 0 0 538.5 402.5;" xml:space="preserve">
<style type="text/css">
	.st0{fill:none;stroke:#000000;stroke-width:5;stroke-miterlimit:10;}
	.st1{fill:none;stroke:#4F4F4F;stroke-width:10;stroke-miterlimit:10;}
</style>
<path class="st0" d="M388.9,82.8H89.8c-4.5,0-8.2-3.1-8.2-6.9l0-15.3"/>
<path class="st0" d="M526.6,161V90.9c0-4.5-4.3-8.1-9.6-8.1h-70.3"/>
<path class="st0" d="M312.4,298.9v-28c0-4.5,4.3-8.1,9.6-8.1h195c5.3,0,9.6-3.6,9.6-8.1v-75"/>
<path class="st0" d="M235.8,298.9v-28c0-4.5-4.3-8.1-9.6-8.1H12.1c-5.3,0-9.6-3.6-9.6-8.1V90.9c0-4.5,4.3-8.1,9.6-8.1h45
	c4.4,0,7.9-3,7.9-6.7l0-15.5"/>
<rect x="229" y="298.9" width="13.2" height="63.4"/>
<rect x="306.3" y="298.9" width="13.2" height="63.4"/>
<g>
	<path d="M73.3,4c11.5,0,20.8,7.9,20.8,17.7c0,9.6-6.8,10.7-8.1,21.2c0,1-0.9,1.8-2.1,1.8H62.7c-1.2,0-2.1-0.8-2.1-1.8h0
		c-1.3-10.5-8.1-11.6-8.1-21.2C52.5,11.9,61.8,4,73.3,4 M83.7,46.4c1.2,0,2.1,0.8,2.1,1.8S84.9,50,83.7,50H62.9
		c-1.2,0-2.1-0.8-2.1-1.8s0.9-1.8,2.1-1.8H83.7 M83.7,51.7c1.2,0,2.1,0.8,2.1,1.8c0,1-0.9,1.8-2.1,1.8H62.9c-1.2,0-2.1-0.8-2.1-1.8
		c0-1,0.9-1.8,2.1-1.8H83.7 M81.6,57c0,2-1.9,3.5-4.2,3.5h-8.3C66.8,60.6,65,59,65,57H81.6 M73.3,0C59.2,0,47.7,9.7,47.7,21.7
		c0,6,2.3,9.5,4.4,12.5c1.7,2.6,3.2,4.8,3.8,9c0.1,0.9,0.4,1.8,0.9,2.6c-0.4,0.7-0.7,1.6-0.7,2.5c0,1,0.3,1.9,0.8,2.6
		c-0.5,0.8-0.8,1.7-0.8,2.6c0,2.5,1.9,4.6,4.5,5.4c1,3.3,4.5,5.7,8.6,5.7h8.3c4.2,0,7.6-2.4,8.6-5.7c2.6-0.8,4.5-2.9,4.5-5.4
		c0-1-0.3-1.9-0.8-2.6c0.5-0.8,0.8-1.7,0.8-2.6c0-0.9-0.2-1.7-0.7-2.5c0.5-0.8,0.8-1.6,0.9-2.6c0.5-4.2,2-6.4,3.8-9
		c2-3,4.4-6.5,4.4-12.5C98.9,9.7,87.4,0,73.3,0L73.3,0z"/>
</g>
<line class="st0" x1="388.9" y1="64.6" x2="388.9" y2="100.9"/>
<line class="st0" x1="400.3" y1="73.1" x2="400.3" y2="92.4"/>
<line class="st0" x1="411.8" y1="64.6" x2="411.8" y2="100.9"/>
<line class="st0" x1="423.3" y1="73.1" x2="423.3" y2="92.4"/>
<line class="st0" x1="435.2" y1="64.6" x2="435.2" y2="100.9"/>
<line class="st0" x1="446.7" y1="73.1" x2="446.7" y2="92.4"/>
<path class="st0" d="M516.4,164.8c0.5-0.5,4.9-4.3,11.5-3.8c5.1,0.4,8.2,3.1,8.9,3.8"/>
<path class="st0" d="M516.4,175.9c0.5,0.5,4.9,4.3,11.5,3.8c5.1-0.4,8.2-3.1,8.9-3.8"/>
<path class="st1" d="M181.9,287.4h8.2c3.4,0,6.1,2.3,6.1,5.2v99.8c0,2.9,2.7,5.2,6.1,5.2h142.3c3.4,0,6.1-2.3,6.1-5.2v-99.8
	c0-2.9,2.7-5.2,6.1-5.2h8.2"/>
</svg>
