<?xml version="1.0" encoding="utf-8"?>
<!-- Generator: Adobe Illustrator 19.1.0, SVG Export Plug-In . SVG Version: 6.00 Build 0)  -->
<svg version="1.1" id="Layer_1" xmlns="http://www.w3.org/2000/svg" xmlns:xlink="http://www.w3.org/1999/xlink" x="0px" y="0px"
	 viewBox="0 0 474.7 376.5" style="enable-background:new 0 0 474.7 376.5;" xml:space="preserve">
<style type="text/css">
	.st0{fill:none;stroke:#000000;stroke-width:5;stroke-miterlimit:10;}
	.st1{fill:#FF0000;}
	.st2{fill:#FFFFFF;stroke:#000000;stroke-width:5;stroke-miterlimit:10;}
</style>
<path class="st0" d="M342.6,86H79.4c-4,0-7.2-3.2-7.2-7.2l0-15.9"/>
<path class="st0" d="M463.9,167.3V94.4c0-4.6-3.8-8.4-8.4-8.4h-61.9"/>
<path class="st0" d="M275.3,310.6v-29.1c0-4.6,3.8-8.4,8.4-8.4h171.7c4.6,0,8.4-3.8,8.4-8.4v-77.9"/>
<path class="st0" d="M207.9,310.6v-29.1c0-4.6-3.8-8.4-8.4-8.4H10.9c-4.6,0-8.4-3.8-8.4-8.4V94.4c0-4.6,3.8-8.4,8.4-8.4h39.6
	c3.9,0,7-3.1,7-7l0-16.1"/>
<rect x="201.9" y="310.6" class="st1" width="11.7" height="65.9"/>
<rect x="270" y="310.6" width="11.7" height="65.9"/>
<g>
	<path d="M64.8,4.2c10.1,0,18.4,8.2,18.4,18.4c0,10-6,11.1-7.1,22c0,1-0.8,1.8-1.8,1.8H55.5c-1,0-1.8-0.8-1.8-1.8h0
		c-1.1-10.9-7.1-12-7.1-22C46.5,12.4,54.7,4.2,64.8,4.2 M74,48.2c1,0,1.8,0.8,1.8,1.8S75,51.9,74,51.9H55.7c-1,0-1.8-0.8-1.8-1.8
		s0.8-1.8,1.8-1.8H74 M74,53.7c1,0,1.8,0.8,1.8,1.8c0,1-0.8,1.8-1.8,1.8H55.7c-1,0-1.8-0.8-1.8-1.8c0-1,0.8-1.8,1.8-1.8H74
		 M72.2,59.3c0,2-1.6,3.7-3.7,3.7h-7.3c-2,0-3.7-1.6-3.7-3.7H72.2 M64.8,0C52.4,0,42.3,10.1,42.3,22.5c0,6.2,2,9.8,3.8,13
		c1.5,2.7,2.8,5,3.3,9.3c0,1,0.3,1.9,0.8,2.7c-0.4,0.8-0.6,1.6-0.6,2.6c0,1,0.2,1.9,0.7,2.8c-0.4,0.8-0.7,1.8-0.7,2.8
		c0,2.6,1.6,4.8,3.9,5.6c0.9,3.4,4,5.9,7.6,5.9h7.3c3.7,0,6.7-2.5,7.6-5.9c2.3-0.9,3.9-3.1,3.9-5.6c0-1-0.2-1.9-0.7-2.8
		c0.4-0.8,0.7-1.8,0.7-2.8c0-0.9-0.2-1.8-0.6-2.6c0.4-0.8,0.7-1.7,0.8-2.7c0.5-4.3,1.8-6.6,3.3-9.3c1.8-3.2,3.8-6.8,3.8-13
		C87.4,10.1,77.3,0,64.8,0L64.8,0z"/>
</g>
<line class="st0" x1="342.6" y1="67.2" x2="342.6" y2="104.8"/>
<line class="st0" x1="352.7" y1="76" x2="352.7" y2="96"/>
<line class="st0" x1="362.8" y1="67.2" x2="362.8" y2="104.8"/>
<line class="st0" x1="372.9" y1="76" x2="372.9" y2="96"/>
<line class="st0" x1="383.5" y1="67.2" x2="383.5" y2="104.8"/>
<line class="st0" x1="393.6" y1="76" x2="393.6" y2="96"/>
<path class="st2" d="M454.9,171.2c0.5-0.5,4.3-4.5,10.1-3.9c4.4,0.4,7.2,3.2,7.9,3.9"/>
<path class="st2" d="M454.9,182.8c0.5,0.5,4.3,4.5,10.1,3.9c4.4-0.4,7.2-3.2,7.9-3.9"/>
</svg>
