<?xml version="1.0" encoding="utf-8"?>
<!-- Generator: Adobe Illustrator 19.1.0, SVG Export Plug-In . SVG Version: 6.00 Build 0)  -->
<svg version="1.1" id="Capa_1" xmlns="http://www.w3.org/2000/svg" xmlns:xlink="http://www.w3.org/1999/xlink" x="0px" y="0px"
	 viewBox="-945 526.3 28.7 28.7" style="enable-background:new -945 526.3 28.7 28.7;" xml:space="preserve">
<g>
	<g>
		<path d="M-916.9,548.9l-0.2-0.3c-0.7-1.3-2.4-4.3-4.2-6.9c-0.6-0.9-1.2-1.7-1.7-2.4c-0.9-1.2-1.9-2.6-1.9-3.1c0.1-1.9,0-6.4,0-7.8
			h1.1v-2h-14.1v2h1.5c0,1.4-0.1,5.9,0,7.8c0,0.4-1.1,1.9-1.9,3.1c-0.5,0.7-1.1,1.5-1.7,2.4c-1.8,2.6-3.4,5.6-4.2,6.9l-0.2,0.3
			c-0.7,1.3-0.8,3.1,0,4.4c0.6,1,1.4,1.5,2.5,1.5l0,0h22.6h0c1.1,0,2-0.5,2.5-1.5C-916.1,552-916.1,550.2-916.9,548.9z
			 M-918.2,552.5c-0.3,0.4-0.6,0.7-1.1,0.7H-942c-0.5,0-0.8-0.2-1.1-0.7c-0.4-0.8-0.4-1.9,0-2.8l0.2-0.4c0.7-1.3,2.4-4.2,4.1-6.8
			c0.6-0.8,1.2-1.6,1.7-2.4c1.5-2,2.3-3.1,2.2-4.1c-0.1-1.7,0-5.6,0-7.3h8.3c0,1.7,0.1,5.6,0,7.3c0,0.9,0.7,2,2.2,4.1
			c0.5,0.7,1.1,1.5,1.7,2.4c1.7,2.5,3.4,5.5,4.1,6.8l0.2,0.4C-917.8,550.5-917.8,551.7-918.2,552.5z"/>
	</g>
</g>
</svg>
