<?xml version="1.0" encoding="UTF-8" standalone="no"?>
<svg
   xmlns:dc="http://purl.org/dc/elements/1.1/"
   xmlns:cc="http://creativecommons.org/ns#"
   xmlns:rdf="http://www.w3.org/1999/02/22-rdf-syntax-ns#"
   xmlns:svg="http://www.w3.org/2000/svg"
   xmlns="http://www.w3.org/2000/svg"
   height="58.113998"
   width="21.114"
   xml:space="preserve"
   viewBox="0 0 21.114003 58.114"
   y="0px"
   x="0px"
   id="Capa_1"
   version="1.1"><metadata
     id="metadata45"><rdf:RDF><cc:Work
     rdf:about=""><dc:format>image/svg+xml</dc:format><dc:type
       rdf:resource="http://purl.org/dc/dcmitype/StillImage" /><dc:title></dc:title></cc:Work></rdf:RDF> /&gt;</metadata><defs
     id="defs43" /><g
     transform="matrix(-1.2978295,0,0,-0.99310972,48.374222,57.812329)"
     id="g3"><line
       id="line5"
       y2="19.899"
       x2="27.959"
       y1="19.906"
       x1="27.959"
       style="fill:none;stroke:#1d1d1b;stroke-width:0;stroke-linecap:round;stroke-linejoin:round" /><path
       id="path7"
       d="M 33.796,4.09 C 33.453,3.607 28.627,-0.951 27.944,0.179 27.898,0.18 27.85,0.19 27.8,0.216 c -7.072,3.666 -8.9,13.359 -4.238,19.687 0.059,0.081 0.196,0.055 0.214,-0.032 1.388,1.022 4.391,0.794 3.979,2.992 -0.017,0.092 0.057,0.164 0.134,0.177 -1.433,8.213 -2.481,16.593 -3.415,24.869 -0.462,4.097 -0.522,9.125 4.392,10.198 0.153,0.033 0.251,-0.074 0.271,-0.193 3.609,0.572 4.209,-5.075 4.244,-7.93 0.11,-8.802 -1.534,-18.163 -2.87,-26.901 0.037,0.038 0.107,0.011 0.092,-0.047 -0.413,-1.599 1.588,-2.182 2.656,-2.609 0.485,-0.193 1.008,-0.456 1.37,-0.848 0.081,0.01 0.166,-0.015 0.24,-0.1 C 38.83,14.916 36.991,8.586 33.796,4.09 Z m -1.061,15.909 c -0.576,0.226 -1.167,0.413 -1.668,0.79 -0.475,0.357 -0.767,0.806 -0.816,1.289 -0.12,-0.032 -0.278,0.03 -0.267,0.179 0.451,5.7 1.224,11.382 1.878,17.062 0.378,3.279 3.327,18.96 -3.376,18.176 -2.316,-0.992 -3.762,-4.262 -3.762,-6.538 0,-1.016 0.178,-2.041 0.296,-3.047 0.349,-2.978 0.788,-5.948 1.182,-8.92 0.743,-5.606 1.601,-11.215 2.094,-16.849 0.007,-0.077 -0.059,-0.118 -0.125,-0.122 -0.089,-0.553 -0.47,-1.046 -0.994,-1.37 -0.546,-0.338 -1.171,-0.48 -1.78,-0.659 -0.845,-0.248 -1.377,-0.604 -1.986,-1.22 -0.009,-0.009 -0.019,-0.008 -0.028,-0.014 -2.424,-6.799 -2.338,-13.828 4.734,-17.991 0.109,-0.064 0.149,-0.158 0.149,-0.252 0.971,-0.029 3.747,2.46 3.939,2.671 0.962,1.052 1.771,2.408 2.421,3.686 1.959,3.853 2.81,8.161 0.058,11.811 -0.031,0.011 -0.064,0.016 -0.09,0.043 -0.579,0.598 -1.068,0.965 -1.859,1.275 z"
       style="fill:#1d1d1b" /><path
       id="path9"
       d="M 29.121,17.81 C 25.698,17.46 24.21,14.257 24.152,11.175 24.118,9.381 24.247,6.666 25.365,5.107 25.423,5.026 25.297,4.935 25.23,5.003 c -1.914,1.912 -1.945,6.221 -1.338,8.629 0.654,2.596 2.516,4.551 5.228,4.801 0.401,0.036 0.395,-0.583 10e-4,-0.623 z"
       style="fill:#1d1d1b" /></g><g
     id="g11" /><g
     id="g13" /><g
     id="g15" /><g
     id="g17" /><g
     id="g19" /><g
     id="g21" /><g
     id="g23" /><g
     id="g25" /><g
     id="g27" /><g
     id="g29" /><g
     id="g31" /><g
     id="g33" /><g
     id="g35" /><g
     id="g37" /><g
     id="g39" /></svg>